<?xml version="1.0" encoding="utf-8"?>
<!-- Generator: Adobe Illustrator 24.0.1, SVG Export Plug-In . SVG Version: 6.00 Build 0)  -->
<svg version="1.1" id="Layer_1" xmlns="http://www.w3.org/2000/svg" xmlns:xlink="http://www.w3.org/1999/xlink" x="0px" y="0px"
	 viewBox="0 0 300 300" style="enable-background:new 0 0 300 300;" xml:space="preserve">
<style type="text/css">
	.st0{fill:#77B943;}
</style>
<title>NVDA_Light_bg</title>
<g>
	<path id="path2045" class="st0" d="M124.4,123v-12c1.2,0,2.4-0.2,3.6-0.2c33-1,54.6,28.3,54.6,28.3s-23.4,32.5-48.4,32.5
		c-3.3,0-6.6-0.5-9.8-1.6v-36.6c12.8,1.6,15.4,7.2,23.1,20.1l17.2-14.5c0,0-12.5-16.4-33.7-16.4C128.8,122.6,126.6,122.8,124.4,123
		 M124.4,83.2v18l3.6-0.2c45.9-1.5,75.8,37.6,75.8,37.6s-34.3,41.8-70.1,41.8c-3.1,0-6.2-0.3-9.2-0.8v11.1c2.5,0.3,5.1,0.5,7.7,0.5
		c33.3,0,57.3-17,80.6-37c3.9,3.1,19.7,10.6,22.9,13.9c-22.1,18.5-73.8,33.5-103.1,33.5c-2.8,0-5.5-0.2-8.2-0.4v15.7h126.6V83.2
		L124.4,83.2z M124.4,170v9.5C93.7,174.1,85.1,142,85.1,142c10.6-10.6,24.4-17.2,39.2-19v10.4l0,0c-12.9-1.5-22.9,10.6-22.9,10.6
		S107.1,164.3,124.4,170 M69.8,140.7c13.2-17.2,33-28,54.6-29.7v-9.8c-40.4,3.2-75.3,37.4-75.3,37.4s19.8,57.2,75.3,62.4v-10.4
		C83.6,185.6,69.7,140.7,69.8,140.7"/>
</g>
</svg>
